<?xml version="1.0" standalone="no"?>
<!DOCTYPE svg PUBLIC "-//W3C//DTD SVG 20010904//EN"
 "http://www.w3.org/TR/2001/REC-SVG-20010904/DTD/svg10.dtd">
<svg version="1.0" xmlns="http://www.w3.org/2000/svg"
 width="1152.000000pt" height="294.000000pt" viewBox="0 0 1152.000000 294.000000"
 preserveAspectRatio="xMidYMid meet">

<g transform="translate(0.000000,294.000000) scale(0.100000,-0.100000)"
fill="#000000" stroke="none">
<path d="M8701 2925 c-51 -16 -95 -55 -122 -107 -18 -36 -19 -77 -19 -1328 0
-1142 2 -1295 15 -1328 20 -47 50 -78 100 -105 l40 -22 1260 -3 c852 -2 1276
1 1311 8 60 13 116 56 144 111 20 37 20 64 20 1333 0 889 -3 1304 -11 1323
-13 34 -64 89 -104 111 -27 16 -137 17 -1310 19 -1062 2 -1287 0 -1324 -12z
m599 -406 c60 -27 98 -64 126 -124 78 -164 -43 -355 -226 -355 -64 0 -141 32
-182 76 -89 96 -89 252 0 348 67 72 192 96 282 55z m1393 -654 c166 -43 266
-156 314 -353 13 -56 17 -149 20 -560 l4 -492 -214 0 -215 0 -5 418 c-5 443
-9 485 -58 554 -68 94 -288 88 -358 -10 -54 -77 -55 -85 -59 -539 l-3 -423
-220 0 -219 0 0 695 0 695 210 0 210 0 0 -91 0 -90 55 60 c80 86 164 133 275
155 43 8 204 -3 263 -19z m-1273 -710 l0 -695 -220 0 -220 0 0 695 0 695 220
0 220 0 0 -695z"/>
<path d="M1635 2531 c-113 -29 -189 -125 -189 -241 0 -97 50 -176 139 -223 55
-29 155 -29 211 0 120 63 174 213 117 328 -21 42 -72 94 -114 115 -42 22 -121
32 -164 21z"/>
<path d="M0 1485 l0 -1025 635 0 635 0 0 205 0 205 -410 0 -410 0 -2 818 -3
817 -222 3 -223 2 0 -1025z"/>
<path d="M3710 1485 l0 -1025 210 0 210 0 0 345 c0 190 3 345 8 345 4 0 110
-156 236 -345 l228 -345 264 0 c145 0 264 2 264 5 0 2 -122 169 -271 370 -149
201 -269 371 -266 379 3 7 122 145 264 307 142 162 264 302 272 312 13 16 -1
17 -245 17 l-259 0 -240 -279 c-132 -154 -243 -280 -247 -280 -5 -1 -8 274 -8
609 l0 610 -210 0 -210 0 0 -1025z"/>
<path d="M7700 2110 c0 -220 -3 -400 -6 -400 -3 0 -26 20 -50 45 -153 152
-484 180 -693 58 -197 -115 -321 -342 -337 -618 -21 -351 157 -634 458 -730
225 -71 434 -28 589 122 l69 66 0 -91 0 -92 195 0 195 0 0 1020 0 1020 -210 0
-210 0 0 -400z m-158 -627 c69 -31 120 -84 157 -162 23 -49 26 -68 26 -161 0
-99 -2 -109 -33 -173 -60 -121 -159 -177 -313 -177 -143 0 -249 62 -306 179
-26 51 -28 66 -28 171 0 99 3 122 24 167 26 59 103 137 158 159 97 41 220 40
315 -3z"/>
<path d="M5671 1875 c-294 -53 -515 -250 -588 -525 -28 -102 -25 -303 6 -400
38 -125 87 -206 176 -295 92 -92 176 -145 288 -180 296 -94 593 -35 795 159
34 33 61 64 59 69 -1 5 -66 55 -142 112 l-140 102 -57 -54 c-108 -101 -227
-133 -356 -94 -52 15 -83 33 -120 66 -51 46 -102 133 -102 174 0 21 2 21 496
21 l496 0 -5 158 c-5 182 -23 258 -89 385 -127 244 -401 359 -717 302z m216
-306 c42 -13 119 -83 143 -129 11 -21 22 -57 26 -79 l7 -41 -287 0 -286 0 0
23 c1 63 79 170 153 209 68 35 163 41 244 17z"/>
<path d="M2815 1860 c-78 -25 -158 -81 -209 -147 -23 -28 -44 -52 -48 -52 -5
-1 -8 42 -8 94 l0 95 -200 0 -200 0 0 -690 0 -690 210 0 210 0 0 373 c0 204 4
399 10 431 21 129 82 203 185 226 102 23 194 -7 242 -79 44 -66 46 -87 50
-528 l4 -423 210 0 209 0 0 459 c0 488 -6 566 -51 683 -44 116 -134 203 -247
239 -98 32 -284 36 -367 9z"/>
<path d="M1480 1160 l0 -690 210 0 210 0 0 690 0 690 -210 0 -210 0 0 -690z"/>
</g>
</svg>
